<svg width="8.2in" height="4.5in" viewBox="0 0 8200 4500" xmlns:xlink="http://www.w3.org/1999/xlink" xmlns="http://www.w3.org/2000/svg">
  <style>.label { font: 64px courier; fill: red; }</style>
  <defs>
    <circle fill="black" stroke-width="0" stroke="#fff" r="36" id="data" />
    <circle fill="black" stroke-width="0" stroke="#fff" r="23" id="feeder" />
    <g id="byte0">
      <use xlink:href="#feeder" y="400" />
    </g>
    <g id="byte8">
      <use xlink:href="#data" y="500" />
      <use xlink:href="#feeder" y="400" />
    </g>
    <g id="byte16">
      <use xlink:href="#data" y="600" />
      <use xlink:href="#feeder" y="400" />
    </g>
    <g id="byte24">
      <use xlink:href="#data" y="500" />
      <use xlink:href="#data" y="600" />
      <use xlink:href="#feeder" y="400" />
    </g>
    <g id="byte32">
      <use xlink:href="#data" y="700" />
      <use xlink:href="#feeder" y="400" />
    </g>
    <g id="byte40">
      <use xlink:href="#data" y="500" />
      <use xlink:href="#data" y="700" />
      <use xlink:href="#feeder" y="400" />
    </g>
    <g id="byte48">
      <use xlink:href="#data" y="600" />
      <use xlink:href="#data" y="700" />
      <use xlink:href="#feeder" y="400" />
    </g>
    <g id="byte56">
      <use xlink:href="#data" y="500" />
      <use xlink:href="#data" y="600" />
      <use xlink:href="#data" y="700" />
      <use xlink:href="#feeder" y="400" />
    </g>
    <g id="byte64">
      <use xlink:href="#data" y="800" />
      <use xlink:href="#feeder" y="400" />
    </g>
    <g id="byte72">
      <use xlink:href="#data" y="500" />
      <use xlink:href="#data" y="800" />
      <use xlink:href="#feeder" y="400" />
    </g>
    <g id="byte80">
      <use xlink:href="#data" y="600" />
      <use xlink:href="#data" y="800" />
      <use xlink:href="#feeder" y="400" />
    </g>
    <g id="byte88">
      <use xlink:href="#data" y="500" />
      <use xlink:href="#data" y="600" />
      <use xlink:href="#data" y="800" />
      <use xlink:href="#feeder" y="400" />
    </g>
    <g id="byte96">
      <use xlink:href="#data" y="700" />
      <use xlink:href="#data" y="800" />
      <use xlink:href="#feeder" y="400" />
    </g>
    <g id="byte104">
      <use xlink:href="#data" y="500" />
      <use xlink:href="#data" y="700" />
      <use xlink:href="#data" y="800" />
      <use xlink:href="#feeder" y="400" />
    </g>
    <g id="byte112">
      <use xlink:href="#data" y="600" />
      <use xlink:href="#data" y="700" />
      <use xlink:href="#data" y="800" />
      <use xlink:href="#feeder" y="400" />
    </g>
    <g id="byte120">
      <use xlink:href="#data" y="500" />
      <use xlink:href="#data" y="600" />
      <use xlink:href="#data" y="700" />
      <use xlink:href="#data" y="800" />
      <use xlink:href="#feeder" y="400" />
    </g>
    <g id="byte128">
      <use xlink:href="#data" y="900" />
      <use xlink:href="#feeder" y="400" />
    </g>
    <g id="byte136">
      <use xlink:href="#data" y="500" />
      <use xlink:href="#data" y="900" />
      <use xlink:href="#feeder" y="400" />
    </g>
    <g id="byte144">
      <use xlink:href="#data" y="600" />
      <use xlink:href="#data" y="900" />
      <use xlink:href="#feeder" y="400" />
    </g>
    <g id="byte152">
      <use xlink:href="#data" y="500" />
      <use xlink:href="#data" y="600" />
      <use xlink:href="#data" y="900" />
      <use xlink:href="#feeder" y="400" />
    </g>
    <g id="byte160">
      <use xlink:href="#data" y="700" />
      <use xlink:href="#data" y="900" />
      <use xlink:href="#feeder" y="400" />
    </g>
    <g id="byte168">
      <use xlink:href="#data" y="500" />
      <use xlink:href="#data" y="700" />
      <use xlink:href="#data" y="900" />
      <use xlink:href="#feeder" y="400" />
    </g>
    <g id="byte184">
      <use xlink:href="#data" y="500" />
      <use xlink:href="#data" y="600" />
      <use xlink:href="#data" y="700" />
      <use xlink:href="#data" y="900" />
      <use xlink:href="#feeder" y="400" />
    </g>
    <g id="byte192">
      <use xlink:href="#data" y="800" />
      <use xlink:href="#data" y="900" />
      <use xlink:href="#feeder" y="400" />
    </g>
    <g id="byte200">
      <use xlink:href="#data" y="500" />
      <use xlink:href="#data" y="800" />
      <use xlink:href="#data" y="900" />
      <use xlink:href="#feeder" y="400" />
    </g>
    <g id="byte208">
      <use xlink:href="#data" y="600" />
      <use xlink:href="#data" y="800" />
      <use xlink:href="#data" y="900" />
      <use xlink:href="#feeder" y="400" />
    </g>
    <g id="byte216">
      <use xlink:href="#data" y="500" />
      <use xlink:href="#data" y="600" />
      <use xlink:href="#data" y="800" />
      <use xlink:href="#data" y="900" />
      <use xlink:href="#feeder" y="400" />
    </g>
    <g id="byte224">
      <use xlink:href="#data" y="700" />
      <use xlink:href="#data" y="800" />
      <use xlink:href="#data" y="900" />
      <use xlink:href="#feeder" y="400" />
    </g>
    <g id="byte240">
      <use xlink:href="#data" y="600" />
      <use xlink:href="#data" y="700" />
      <use xlink:href="#data" y="800" />
      <use xlink:href="#data" y="900" />
      <use xlink:href="#feeder" y="400" />
    </g>
    <g id="byte248">
      <use xlink:href="#data" y="500" />
      <use xlink:href="#data" y="600" />
      <use xlink:href="#data" y="700" />
      <use xlink:href="#data" y="800" />
      <use xlink:href="#data" y="900" />
      <use xlink:href="#feeder" y="400" />
    </g>
  </defs>
  <g>
    <rect x="100" y="100" width="8000" height="1000" fill="#ffffaa" />
  </g>
  <g>
    <rect x="100" y="1200" width="8000" height="1000" fill="#ffffaa" />
  </g>
  <g>
    <rect x="100" y="2300" width="8000" height="1000" fill="#ffffaa" />
  </g>
  <g>
    <rect x="100" y="3400" width="8000" height="1000" fill="#ffffaa" />
  </g>
  <text x="150" y="150" class="label"></text>
  <g>
    <use xlink:href="#byte0" x="150" y="100" />
    <use xlink:href="#byte0" x="250" y="100" />
    <use xlink:href="#byte184" x="350" y="100" />
    <use xlink:href="#byte0" x="450" y="100" />
    <use xlink:href="#byte24" x="550" y="100" />
    <use xlink:href="#byte24" x="650" y="100" />
    <use xlink:href="#byte0" x="750" y="100" />
    <use xlink:href="#byte80" x="850" y="100" />
    <use xlink:href="#byte248" x="950" y="100" />
    <use xlink:href="#byte80" x="1050" y="100" />
    <use xlink:href="#byte248" x="1150" y="100" />
    <use xlink:href="#byte80" x="1250" y="100" />
    <use xlink:href="#byte0" x="1350" y="100" />
    <use xlink:href="#byte144" x="1450" y="100" />
    <use xlink:href="#byte168" x="1550" y="100" />
    <use xlink:href="#byte248" x="1650" y="100" />
    <use xlink:href="#byte72" x="1750" y="100" />
    <use xlink:href="#byte0" x="1850" y="100" />
    <use xlink:href="#byte152" x="1950" y="100" />
    <use xlink:href="#byte88" x="2050" y="100" />
    <use xlink:href="#byte32" x="2150" y="100" />
    <use xlink:href="#byte208" x="2250" y="100" />
    <use xlink:href="#byte200" x="2350" y="100" />
    <use xlink:href="#byte0" x="2450" y="100" />
    <use xlink:href="#byte208" x="2550" y="100" />
    <use xlink:href="#byte168" x="2650" y="100" />
    <use xlink:href="#byte88" x="2750" y="100" />
    <use xlink:href="#byte160" x="2850" y="100" />
    <use xlink:href="#byte0" x="2950" y="100" />
    <use xlink:href="#byte24" x="3050" y="100" />
    <use xlink:href="#byte0" x="3150" y="100" />
    <use xlink:href="#byte112" x="3250" y="100" />
    <use xlink:href="#byte136" x="3350" y="100" />
    <use xlink:href="#byte0" x="3450" y="100" />
    <use xlink:href="#byte136" x="3550" y="100" />
    <use xlink:href="#byte112" x="3650" y="100" />
    <use xlink:href="#byte0" x="3750" y="100" />
    <use xlink:href="#byte80" x="3850" y="100" />
    <use xlink:href="#byte112" x="3950" y="100" />
    <use xlink:href="#byte80" x="4050" y="100" />
    <use xlink:href="#byte0" x="4150" y="100" />
    <use xlink:href="#byte32" x="4250" y="100" />
    <use xlink:href="#byte112" x="4350" y="100" />
    <use xlink:href="#byte32" x="4450" y="100" />
    <use xlink:href="#byte0" x="4550" y="100" />
    <use xlink:href="#byte128" x="4650" y="100" />
    <use xlink:href="#byte64" x="4750" y="100" />
    <use xlink:href="#byte0" x="4850" y="100" />
    <use xlink:href="#byte32" x="4950" y="100" />
    <use xlink:href="#byte32" x="5050" y="100" />
    <use xlink:href="#byte32" x="5150" y="100" />
    <use xlink:href="#byte0" x="5250" y="100" />
    <use xlink:href="#byte192" x="5350" y="100" />
    <use xlink:href="#byte192" x="5450" y="100" />
    <use xlink:href="#byte0" x="5550" y="100" />
    <use xlink:href="#byte128" x="5650" y="100" />
    <use xlink:href="#byte64" x="5750" y="100" />
    <use xlink:href="#byte32" x="5850" y="100" />
    <use xlink:href="#byte16" x="5950" y="100" />
    <use xlink:href="#byte8" x="6050" y="100" />
    <use xlink:href="#byte0" x="6150" y="100" />
    <use xlink:href="#byte112" x="6250" y="100" />
    <use xlink:href="#byte168" x="6350" y="100" />
    <use xlink:href="#byte152" x="6450" y="100" />
    <use xlink:href="#byte112" x="6550" y="100" />
    <use xlink:href="#byte0" x="6650" y="100" />
    <use xlink:href="#byte144" x="6750" y="100" />
    <use xlink:href="#byte248" x="6850" y="100" />
    <use xlink:href="#byte128" x="6950" y="100" />
    <use xlink:href="#byte0" x="7050" y="100" />
    <use xlink:href="#byte144" x="7150" y="100" />
    <use xlink:href="#byte200" x="7250" y="100" />
    <use xlink:href="#byte168" x="7350" y="100" />
    <use xlink:href="#byte144" x="7450" y="100" />
    <use xlink:href="#byte0" x="7550" y="100" />
    <use xlink:href="#byte136" x="7650" y="100" />
    <use xlink:href="#byte136" x="7750" y="100" />
    <use xlink:href="#byte168" x="7850" y="100" />
    <use xlink:href="#byte80" x="7950" y="100" />
    <use xlink:href="#byte0" x="8050" y="100" />
  </g>
  <g>
    <use xlink:href="#byte56" x="150" y="1200" />
    <use xlink:href="#byte32" x="250" y="1200" />
    <use xlink:href="#byte248" x="350" y="1200" />
    <use xlink:href="#byte32" x="450" y="1200" />
    <use xlink:href="#byte0" x="550" y="1200" />
    <use xlink:href="#byte184" x="650" y="1200" />
    <use xlink:href="#byte168" x="750" y="1200" />
    <use xlink:href="#byte168" x="850" y="1200" />
    <use xlink:href="#byte72" x="950" y="1200" />
    <use xlink:href="#byte0" x="1050" y="1200" />
    <use xlink:href="#byte112" x="1150" y="1200" />
    <use xlink:href="#byte168" x="1250" y="1200" />
    <use xlink:href="#byte168" x="1350" y="1200" />
    <use xlink:href="#byte72" x="1450" y="1200" />
    <use xlink:href="#byte0" x="1550" y="1200" />
    <use xlink:href="#byte24" x="1650" y="1200" />
    <use xlink:href="#byte200" x="1750" y="1200" />
    <use xlink:href="#byte40" x="1850" y="1200" />
    <use xlink:href="#byte24" x="1950" y="1200" />
    <use xlink:href="#byte0" x="2050" y="1200" />
    <use xlink:href="#byte80" x="2150" y="1200" />
    <use xlink:href="#byte168" x="2250" y="1200" />
    <use xlink:href="#byte168" x="2350" y="1200" />
    <use xlink:href="#byte80" x="2450" y="1200" />
    <use xlink:href="#byte0" x="2550" y="1200" />
    <use xlink:href="#byte16" x="2650" y="1200" />
    <use xlink:href="#byte168" x="2750" y="1200" />
    <use xlink:href="#byte168" x="2850" y="1200" />
    <use xlink:href="#byte112" x="2950" y="1200" />
    <use xlink:href="#byte0" x="3050" y="1200" />
    <use xlink:href="#byte80" x="3150" y="1200" />
    <use xlink:href="#byte0" x="3250" y="1200" />
    <use xlink:href="#byte128" x="3350" y="1200" />
    <use xlink:href="#byte80" x="3450" y="1200" />
    <use xlink:href="#byte0" x="3550" y="1200" />
    <use xlink:href="#byte32" x="3650" y="1200" />
    <use xlink:href="#byte80" x="3750" y="1200" />
    <use xlink:href="#byte136" x="3850" y="1200" />
    <use xlink:href="#byte0" x="3950" y="1200" />
    <use xlink:href="#byte80" x="4050" y="1200" />
    <use xlink:href="#byte80" x="4150" y="1200" />
    <use xlink:href="#byte80" x="4250" y="1200" />
    <use xlink:href="#byte0" x="4350" y="1200" />
    <use xlink:href="#byte136" x="4450" y="1200" />
    <use xlink:href="#byte80" x="4550" y="1200" />
    <use xlink:href="#byte32" x="4650" y="1200" />
    <use xlink:href="#byte0" x="4750" y="1200" />
    <use xlink:href="#byte8" x="4850" y="1200" />
    <use xlink:href="#byte168" x="4950" y="1200" />
    <use xlink:href="#byte56" x="5050" y="1200" />
    <use xlink:href="#byte0" x="5150" y="1200" />
    <use xlink:href="#byte112" x="5250" y="1200" />
    <use xlink:href="#byte136" x="5350" y="1200" />
    <use xlink:href="#byte168" x="5450" y="1200" />
    <use xlink:href="#byte216" x="5550" y="1200" />
    <use xlink:href="#byte0" x="5650" y="1200" />
    <use xlink:href="#byte240" x="5750" y="1200" />
    <use xlink:href="#byte40" x="5850" y="1200" />
    <use xlink:href="#byte40" x="5950" y="1200" />
    <use xlink:href="#byte240" x="6050" y="1200" />
    <use xlink:href="#byte0" x="6150" y="1200" />
    <use xlink:href="#byte248" x="6250" y="1200" />
    <use xlink:href="#byte168" x="6350" y="1200" />
    <use xlink:href="#byte168" x="6450" y="1200" />
    <use xlink:href="#byte80" x="6550" y="1200" />
    <use xlink:href="#byte0" x="6650" y="1200" />
    <use xlink:href="#byte112" x="6750" y="1200" />
    <use xlink:href="#byte136" x="6850" y="1200" />
    <use xlink:href="#byte136" x="6950" y="1200" />
    <use xlink:href="#byte136" x="7050" y="1200" />
    <use xlink:href="#byte0" x="7150" y="1200" />
    <use xlink:href="#byte248" x="7250" y="1200" />
    <use xlink:href="#byte136" x="7350" y="1200" />
    <use xlink:href="#byte136" x="7450" y="1200" />
    <use xlink:href="#byte112" x="7550" y="1200" />
    <use xlink:href="#byte0" x="7650" y="1200" />
    <use xlink:href="#byte248" x="7750" y="1200" />
    <use xlink:href="#byte168" x="7850" y="1200" />
    <use xlink:href="#byte168" x="7950" y="1200" />
    <use xlink:href="#byte136" x="8050" y="1200" />
  </g>
  <g>
    <use xlink:href="#byte0" x="150" y="2300" />
    <use xlink:href="#byte248" x="250" y="2300" />
    <use xlink:href="#byte40" x="350" y="2300" />
    <use xlink:href="#byte40" x="450" y="2300" />
    <use xlink:href="#byte8" x="550" y="2300" />
    <use xlink:href="#byte0" x="650" y="2300" />
    <use xlink:href="#byte112" x="750" y="2300" />
    <use xlink:href="#byte136" x="850" y="2300" />
    <use xlink:href="#byte168" x="950" y="2300" />
    <use xlink:href="#byte200" x="1050" y="2300" />
    <use xlink:href="#byte0" x="1150" y="2300" />
    <use xlink:href="#byte248" x="1250" y="2300" />
    <use xlink:href="#byte32" x="1350" y="2300" />
    <use xlink:href="#byte32" x="1450" y="2300" />
    <use xlink:href="#byte248" x="1550" y="2300" />
    <use xlink:href="#byte0" x="1650" y="2300" />
    <use xlink:href="#byte136" x="1750" y="2300" />
    <use xlink:href="#byte248" x="1850" y="2300" />
    <use xlink:href="#byte136" x="1950" y="2300" />
    <use xlink:href="#byte0" x="2050" y="2300" />
    <use xlink:href="#byte64" x="2150" y="2300" />
    <use xlink:href="#byte128" x="2250" y="2300" />
    <use xlink:href="#byte128" x="2350" y="2300" />
    <use xlink:href="#byte120" x="2450" y="2300" />
    <use xlink:href="#byte0" x="2550" y="2300" />
    <use xlink:href="#byte248" x="2650" y="2300" />
    <use xlink:href="#byte32" x="2750" y="2300" />
    <use xlink:href="#byte80" x="2850" y="2300" />
    <use xlink:href="#byte136" x="2950" y="2300" />
    <use xlink:href="#byte0" x="3050" y="2300" />
    <use xlink:href="#byte248" x="3150" y="2300" />
    <use xlink:href="#byte128" x="3250" y="2300" />
    <use xlink:href="#byte128" x="3350" y="2300" />
    <use xlink:href="#byte128" x="3450" y="2300" />
    <use xlink:href="#byte0" x="3550" y="2300" />
    <use xlink:href="#byte248" x="3650" y="2300" />
    <use xlink:href="#byte16" x="3750" y="2300" />
    <use xlink:href="#byte32" x="3850" y="2300" />
    <use xlink:href="#byte16" x="3950" y="2300" />
    <use xlink:href="#byte248" x="4050" y="2300" />
    <use xlink:href="#byte0" x="4150" y="2300" />
    <use xlink:href="#byte248" x="4250" y="2300" />
    <use xlink:href="#byte48" x="4350" y="2300" />
    <use xlink:href="#byte96" x="4450" y="2300" />
    <use xlink:href="#byte248" x="4550" y="2300" />
    <use xlink:href="#byte0" x="4650" y="2300" />
    <use xlink:href="#byte112" x="4750" y="2300" />
    <use xlink:href="#byte136" x="4850" y="2300" />
    <use xlink:href="#byte136" x="4950" y="2300" />
    <use xlink:href="#byte112" x="5050" y="2300" />
    <use xlink:href="#byte0" x="5150" y="2300" />
    <use xlink:href="#byte248" x="5250" y="2300" />
    <use xlink:href="#byte40" x="5350" y="2300" />
    <use xlink:href="#byte40" x="5450" y="2300" />
    <use xlink:href="#byte16" x="5550" y="2300" />
    <use xlink:href="#byte0" x="5650" y="2300" />
    <use xlink:href="#byte112" x="5750" y="2300" />
    <use xlink:href="#byte136" x="5850" y="2300" />
    <use xlink:href="#byte200" x="5950" y="2300" />
    <use xlink:href="#byte112" x="6050" y="2300" />
    <use xlink:href="#byte128" x="6150" y="2300" />
    <use xlink:href="#byte0" x="6250" y="2300" />
    <use xlink:href="#byte248" x="6350" y="2300" />
    <use xlink:href="#byte40" x="6450" y="2300" />
    <use xlink:href="#byte104" x="6550" y="2300" />
    <use xlink:href="#byte144" x="6650" y="2300" />
    <use xlink:href="#byte0" x="6750" y="2300" />
    <use xlink:href="#byte144" x="6850" y="2300" />
    <use xlink:href="#byte168" x="6950" y="2300" />
    <use xlink:href="#byte168" x="7050" y="2300" />
    <use xlink:href="#byte72" x="7150" y="2300" />
    <use xlink:href="#byte0" x="7250" y="2300" />
    <use xlink:href="#byte8" x="7350" y="2300" />
    <use xlink:href="#byte8" x="7450" y="2300" />
    <use xlink:href="#byte248" x="7550" y="2300" />
    <use xlink:href="#byte8" x="7650" y="2300" />
    <use xlink:href="#byte8" x="7750" y="2300" />
    <use xlink:href="#byte0" x="7850" y="2300" />
    <use xlink:href="#byte120" x="7950" y="2300" />
    <use xlink:href="#byte128" x="8050" y="2300" />
  </g>
  <g>
    <use xlink:href="#byte128" x="150" y="3400" />
    <use xlink:href="#byte120" x="250" y="3400" />
    <use xlink:href="#byte0" x="350" y="3400" />
    <use xlink:href="#byte56" x="450" y="3400" />
    <use xlink:href="#byte64" x="550" y="3400" />
    <use xlink:href="#byte128" x="650" y="3400" />
    <use xlink:href="#byte64" x="750" y="3400" />
    <use xlink:href="#byte56" x="850" y="3400" />
    <use xlink:href="#byte0" x="950" y="3400" />
    <use xlink:href="#byte248" x="1050" y="3400" />
    <use xlink:href="#byte64" x="1150" y="3400" />
    <use xlink:href="#byte32" x="1250" y="3400" />
    <use xlink:href="#byte64" x="1350" y="3400" />
    <use xlink:href="#byte248" x="1450" y="3400" />
    <use xlink:href="#byte0" x="1550" y="3400" />
    <use xlink:href="#byte136" x="1650" y="3400" />
    <use xlink:href="#byte80" x="1750" y="3400" />
    <use xlink:href="#byte32" x="1850" y="3400" />
    <use xlink:href="#byte80" x="1950" y="3400" />
    <use xlink:href="#byte136" x="2050" y="3400" />
    <use xlink:href="#byte0" x="2150" y="3400" />
    <use xlink:href="#byte8" x="2250" y="3400" />
    <use xlink:href="#byte16" x="2350" y="3400" />
    <use xlink:href="#byte224" x="2450" y="3400" />
    <use xlink:href="#byte16" x="2550" y="3400" />
    <use xlink:href="#byte8" x="2650" y="3400" />
    <use xlink:href="#byte0" x="2750" y="3400" />
    <use xlink:href="#byte136" x="2850" y="3400" />
    <use xlink:href="#byte200" x="2950" y="3400" />
    <use xlink:href="#byte168" x="3050" y="3400" />
    <use xlink:href="#byte152" x="3150" y="3400" />
    <use xlink:href="#byte136" x="3250" y="3400" />
    <use xlink:href="#byte0" x="3350" y="3400" />
    <use xlink:href="#byte248" x="3450" y="3400" />
    <use xlink:href="#byte136" x="3550" y="3400" />
    <use xlink:href="#byte136" x="3650" y="3400" />
    <use xlink:href="#byte0" x="3750" y="3400" />
    <use xlink:href="#byte8" x="3850" y="3400" />
    <use xlink:href="#byte16" x="3950" y="3400" />
    <use xlink:href="#byte32" x="4050" y="3400" />
    <use xlink:href="#byte64" x="4150" y="3400" />
    <use xlink:href="#byte128" x="4250" y="3400" />
    <use xlink:href="#byte0" x="4350" y="3400" />
    <use xlink:href="#byte136" x="4450" y="3400" />
    <use xlink:href="#byte136" x="4550" y="3400" />
    <use xlink:href="#byte248" x="4650" y="3400" />
    <use xlink:href="#byte0" x="4750" y="3400" />
    <use xlink:href="#byte16" x="4850" y="3400" />
    <use xlink:href="#byte8" x="4950" y="3400" />
    <use xlink:href="#byte16" x="5050" y="3400" />
    <use xlink:href="#byte0" x="5150" y="3400" />
    <use xlink:href="#byte128" x="5250" y="3400" />
    <use xlink:href="#byte128" x="5350" y="3400" />
    <use xlink:href="#byte128" x="5450" y="3400" />
    <use xlink:href="#byte128" x="5550" y="3400" />
    <use xlink:href="#byte0" x="5650" y="3400" />
    <use xlink:href="#byte0" x="5750" y="3400" />
    <use xlink:href="#byte0" x="5850" y="3400" />
    <use xlink:href="#byte0" x="5950" y="3400" />
    <use xlink:href="#byte0" x="6050" y="3400" />
    <use xlink:href="#byte0" x="6150" y="3400" />
    <use xlink:href="#byte0" x="6250" y="3400" />
    <use xlink:href="#byte0" x="6350" y="3400" />
    <use xlink:href="#byte0" x="6450" y="3400" />
    <use xlink:href="#byte0" x="6550" y="3400" />
    <use xlink:href="#byte0" x="6650" y="3400" />
    <use xlink:href="#byte0" x="6750" y="3400" />
    <use xlink:href="#byte0" x="6850" y="3400" />
    <use xlink:href="#byte0" x="6950" y="3400" />
    <use xlink:href="#byte0" x="7050" y="3400" />
    <use xlink:href="#byte0" x="7150" y="3400" />
    <use xlink:href="#byte0" x="7250" y="3400" />
    <use xlink:href="#byte0" x="7350" y="3400" />
    <use xlink:href="#byte0" x="7450" y="3400" />
    <use xlink:href="#byte0" x="7550" y="3400" />
    <use xlink:href="#byte0" x="7650" y="3400" />
    <use xlink:href="#byte0" x="7750" y="3400" />
    <use xlink:href="#byte0" x="7850" y="3400" />
    <use xlink:href="#byte0" x="7950" y="3400" />
    <use xlink:href="#byte0" x="8050" y="3400" />
  </g>
</svg>